<?xml version="1.0" encoding="UTF-8" standalone="no" ?>
<!DOCTYPE svg PUBLIC "-//W3C//DTD SVG 1.1//EN" "http://www.w3.org/Graphics/SVG/1.1/DTD/svg11.dtd">
<svg xmlns="http://www.w3.org/2000/svg" xmlns:xlink="http://www.w3.org/1999/xlink" version="1.1" width="350" height="350" viewBox="0 0 350 350" xml:space="preserve">
<desc>Created with Fabric.js 1.7.22</desc>
<defs>
</defs>
<g id="icon" style="stroke: none; stroke-width: 1; stroke-dasharray: none; stroke-linecap: butt; stroke-linejoin: miter; stroke-miterlimit: 10; fill: none; fill-rule: nonzero; opacity: 1;" transform="translate(-1.9444444444444287 -1.9444444444444287) scale(3.89 3.89)" >
	<path d="M 42.901 85.549 c 1.059 1.383 3.138 1.383 4.197 0 c 7.061 -9.223 28.773 -25.692 33.475 -30.82 c 12.568 -12.568 12.568 -32.946 0 -45.514 h 0 c -8.961 -8.961 -26.859 -7.239 -34.145 3.1 c -0.699 0.992 -2.158 0.992 -2.857 0 C 36.286 1.975 18.387 0.253 9.426 9.214 h 0 c -12.568 12.568 -12.568 32.946 0 45.514 C 14.128 59.857 35.84 76.325 42.901 85.549 z" style="stroke: none; stroke-width: 1; stroke-dasharray: none; stroke-linecap: butt; stroke-linejoin: miter; stroke-miterlimit: 10; fill: rgb(186,30,78); fill-rule: nonzero; opacity: 1;" transform=" matrix(1 0 0 1 0 0) " stroke-linecap="round" />
	<path d="M 80.574 9.214 L 80.574 9.214 c -2.905 -2.905 -6.75 -4.68 -10.866 -5.41 c 13.19 14.118 12.911 36.255 -0.856 50.023 c -4.117 4.49 -19.886 16.749 -30.337 26.814 c 1.75 1.77 3.257 3.433 4.387 4.908 c 1.059 1.383 3.138 1.383 4.197 0 c 7.061 -9.223 28.773 -25.692 33.475 -30.82 C 93.142 42.16 93.142 21.783 80.574 9.214 z" style="stroke: none; stroke-width: 1; stroke-dasharray: none; stroke-linecap: butt; stroke-linejoin: miter; stroke-miterlimit: 10; fill: rgb(158,22,64); fill-rule: nonzero; opacity: 1;" transform=" matrix(1 0 0 1 0 0) " stroke-linecap="round" />
</g>
</svg>