<?xml version="1.0" encoding="iso-8859-1"?>
<!-- Generator: Adobe Illustrator 19.0.0, SVG Export Plug-In . SVG Version: 6.00 Build 0)  -->
<svg version="1.1" id="Layer_1" xmlns="http://www.w3.org/2000/svg" xmlns:xlink="http://www.w3.org/1999/xlink" x="0px" y="0px"
	 viewBox="0 0 512 512" style="enable-background:new 0 0 512 512;" xml:space="preserve">
<g>
	<g>
		<g>
			<path d="M95.867,433.957c-50.379-45.364-79.272-110.226-79.272-177.956c0-63.948,24.902-124.069,70.12-169.286
				C131.932,41.496,192.052,16.594,256,16.594c53.925,0,104.844,17.508,147.246,50.632c3.61,2.82,8.826,2.182,11.646-1.43
				c2.821-3.611,2.18-8.826-1.43-11.647C368.113,18.725,313.663,0,256,0C187.62,0,123.332,26.629,74.98,74.981
				c-48.352,48.352-74.98,112.639-74.98,181.02c0,72.424,30.895,141.782,84.763,190.287c1.586,1.428,3.571,2.132,5.55,2.132
				c2.269,0,4.529-0.926,6.167-2.745C99.546,442.269,99.272,437.022,95.867,433.957z"/>
			<path d="M256,434.561c98.459,0,178.561-80.101,178.561-178.56S354.459,77.439,256,77.439c-4.583,0-8.297,3.715-8.297,8.297
				v55.314c0,4.582,3.714,8.297,8.297,8.297c58.809,0,106.654,47.844,106.654,106.653S314.809,362.653,256,362.653
				c-58.809,0-106.654-47.845-106.654-106.654c0-12.293,2.088-24.287,6.217-35.779l16.856,11.155
				c2.466,1.631,5.611,1.829,8.262,0.516c2.648-1.312,4.4-3.934,4.595-6.884l7.715-116.056c0.197-2.974-1.215-5.826-3.701-7.47
				c-2.484-1.644-5.661-1.831-8.321-0.486L77.165,153.466c-2.638,1.333-4.369,3.97-4.54,6.921c-0.171,2.952,1.239,5.77,3.705,7.402
				l18.21,12.051c-11.208,23.744-17.102,49.916-17.102,76.16C77.439,354.459,157.541,434.561,256,434.561z M109.817,170.051
				l-12.419-8.219l78.072-39.464l-5.802,87.286l-13.355-8.837c-2.016-1.334-4.513-1.722-6.838-1.064
				c-2.326,0.659-4.249,2.299-5.267,4.49c-7.601,16.375-11.456,33.788-11.456,51.757c0,67.958,55.289,123.248,123.248,123.248
				S379.248,323.959,379.248,256c0-65.171-50.844-118.69-114.951-122.971V94.243c85.473,4.33,153.67,75.229,153.67,161.757
				c0,89.31-72.659,161.967-161.967,161.967S94.033,345.309,94.033,256.001c0-26.07,6.415-52.065,18.551-75.172
				C114.564,177.058,113.368,172.401,109.817,170.051z"/>
			<path d="M439.048,77.059c-3.202-3.277-8.454-3.337-11.732-0.133c-3.277,3.204-3.335,8.456-0.132,11.733
				c43.993,44.998,68.222,104.427,68.222,167.34c0,63.947-24.903,124.067-70.121,169.285S319.948,495.405,256,495.405
				c-48.343,0-94.929-14.346-134.723-41.489c-3.79-2.584-8.949-1.606-11.531,2.179c-2.582,3.786-1.606,8.948,2.179,11.53
				C154.486,496.655,204.306,512,256,512c68.381,0,132.668-26.628,181.018-74.981c48.353-48.352,74.981-112.64,74.981-181.02
				C511.999,188.725,486.092,125.176,439.048,77.059z"/>
		</g>
	</g>
</g>
<g>
</g>
<g>
</g>
<g>
</g>
<g>
</g>
<g>
</g>
<g>
</g>
<g>
</g>
<g>
</g>
<g>
</g>
<g>
</g>
<g>
</g>
<g>
</g>
<g>
</g>
<g>
</g>
<g>
</g>
</svg>
