<?xml version="1.0" encoding="UTF-8" standalone="no"?>
<svg
   xmlns:dc="http://purl.org/dc/elements/1.1/"
   xmlns:cc="http://creativecommons.org/ns#"
   xmlns:rdf="http://www.w3.org/1999/02/22-rdf-syntax-ns#"
   xmlns:svg="http://www.w3.org/2000/svg"
   xmlns="http://www.w3.org/2000/svg"
   xmlns:sodipodi="http://sodipodi.sourceforge.net/DTD/sodipodi-0.dtd"
   xmlns:inkscape="http://www.inkscape.org/namespaces/inkscape"
   version="1.1"
   id="Layer_1"
   x="0px"
   y="0px"
   viewBox="0 0 512 512"
   style="enable-background:new 0 0 512 512;"
   xml:space="preserve"
   sodipodi:docname="resume.svg"
   inkscape:version="1.0.2-2 (e86c870879, 2021-01-15)"><metadata
   id="metadata47"><rdf:RDF><cc:Work
       rdf:about=""><dc:format>image/svg+xml</dc:format><dc:type
         rdf:resource="http://purl.org/dc/dcmitype/StillImage" /></cc:Work></rdf:RDF></metadata><defs
   id="defs45" /><sodipodi:namedview
   pagecolor="#ffffff"
   bordercolor="#666666"
   borderopacity="1"
   objecttolerance="10"
   gridtolerance="10"
   guidetolerance="10"
   inkscape:pageopacity="0"
   inkscape:pageshadow="2"
   inkscape:window-width="820"
   inkscape:window-height="480"
   id="namedview43"
   showgrid="false"
   inkscape:zoom="0.48850575"
   inkscape:cx="256"
   inkscape:cy="256"
   inkscape:window-x="0"
   inkscape:window-y="0"
   inkscape:window-maximized="0"
   inkscape:current-layer="g10" />
<g
   id="g10">
	<g
   id="g8"
   transform="matrix(-1,0,0,1,512,0)">
		<g
   id="g6">
			<path
   d="M 256,0 C 114.618,0 0,114.618 0,256 0,397.382 114.618,512 256,512 397.382,512 512,397.382 512,256 512,114.618 397.382,0 256,0 Z m 0,469.333 C 138.182,469.333 42.667,373.818 42.667,256 42.667,138.182 138.182,42.667 256,42.667 c 117.818,0 213.333,95.515 213.333,213.333 0,117.818 -95.515,213.333 -213.333,213.333 z"
   id="path2" />
			<path
   d="m 309.416,152.144 -149.333,85.333 c -14.332,8.19 -14.332,28.855 0,37.045 l 149.333,85.333 c 14.222,8.127 31.918,-2.142 31.918,-18.523 V 170.667 c -10e-4,-16.381 -17.696,-26.65 -31.918,-18.523 z M 298.667,304.572 213.665,256 298.666,207.428 v 97.144 z"
   id="path4" />
		</g>
	</g>
</g>
<g
   id="g12">
</g>
<g
   id="g14">
</g>
<g
   id="g16">
</g>
<g
   id="g18">
</g>
<g
   id="g20">
</g>
<g
   id="g22">
</g>
<g
   id="g24">
</g>
<g
   id="g26">
</g>
<g
   id="g28">
</g>
<g
   id="g30">
</g>
<g
   id="g32">
</g>
<g
   id="g34">
</g>
<g
   id="g36">
</g>
<g
   id="g38">
</g>
<g
   id="g40">
</g>
</svg>
