<svg id="Capa_1" enable-background="new 0 0 512.096 512.096" height="512" viewBox="0 0 512.096 512.096" width="512" xmlns="http://www.w3.org/2000/svg"><g><g><path d="m401.637 46.823c-5.863 5.863-15.351 5.863-21.213 0l-21.213-21.213c-5.863-5.863-5.863-15.351 0-21.213s15.351-5.863 21.213 0l21.213 21.213c5.863 5.863 5.863 15.351 0 21.213z" fill="#1e2533"/></g><path d="m155.692 335.195-22.208-20.219-86.665 86.665c-5.863 5.863-5.863 15.351 0 21.213l10.607 10.607 74.246 74.246c3.677 3.677 8.991 5.179 14.056 3.988 4.967-1.158 9.093-4.828 10.783-9.85l42.426-127.279z" fill="#cc8552"/><path d="m145.728 511.695c4.967-1.158 9.093-4.828 10.783-9.85l42.426-127.279-43.245-39.371-98.266 98.266 74.246 74.246c3.677 3.677 8.991 5.179 14.056 3.988z" fill="#b36a36"/><path d="m237.738 359.215 10.607 10.607-21.213 21.213-42.426-42.426v42.426l31.82 31.82c5.863 5.863 15.351 5.863 21.213 0l42.426-42.426c5.863-5.863 5.863-15.351 0-21.213l-21.213-21.213c-5.852-5.852-5.852-15.361 0-21.213l-21.213-21.213c-17.547 17.545-17.547 46.091-.001 63.638z" fill="#1e2533"/><path d="m174.098 231.936-31.82 31.82c-23.431 23.431-23.431 61.422 0 84.853l42.426 42.426 74.246-74.246-6.531-27.744-25.289-25.289-16.244-16.244z" fill="#515866"/><path d="m258.951 316.788-6.53-27.744-25.289-25.289-84.853 84.853 42.426 42.427z" fill="#353d4d"/><path d="m401.637 4.397-227.539 227.539 42.426 42.426 42.426 42.426 63.64-63.64-21.213-21.213 163.9-163.898c5.863-5.863 5.863-15.351 0-21.213l-10.607-10.607-31.82-31.82c-5.862-5.863-15.35-5.863-21.213 0z" fill="#353d4d"/><path d="m322.591 253.149-21.213-21.213 163.899-163.899c5.863-5.863 5.863-15.351 0-21.213l-10.607-10.607-238.145 238.145 42.426 42.426z" fill="#1e2533"/><path d="m375.624 115.263-21.213 21.213 10.652 31.774-31.865-10.561-21.213 21.213 11.378 31.049-32.591-9.835-21.213 21.213c-5.863 5.863-5.863 15.351 0 21.213l42.426 42.426c5.863 5.863 15.351 5.863 21.213 0l21.213-21.213-9.584-32.842 30.797 11.629 21.213-21.213-9.808-32.619 31.021 11.405 21.213-21.213c5.863-5.863 5.863-15.351 0-21.213l-42.426-42.426c-5.862-5.863-15.35-5.863-21.213 0z" fill="#cc8552"/><g fill="#b36a36"><path d="m318.198 176.329h30v90h-30z" transform="matrix(.707 -.707 .707 .707 -58.912 300.432)"/><path d="m360.624 133.903h30v90h-30z" transform="matrix(.707 -.707 .707 .707 -16.486 318.006)"/></g></g></svg>